<?xml version="1.0" standalone="no"?>
<!DOCTYPE svg PUBLIC "-//W3C//DTD SVG 20010904//EN"
 "http://www.w3.org/TR/2001/REC-SVG-20010904/DTD/svg10.dtd">
<svg version="1.0" xmlns="http://www.w3.org/2000/svg"
 width="1024.000000pt" height="1024.000000pt" viewBox="0 0 1024.000000 1024.000000"
 preserveAspectRatio="xMidYMid meet">

<g transform="translate(0.000000,1024.000000) scale(0.100000,-0.100000)"
fill="#000000" stroke="none">
<path d="M4755 8634 c-1330 -149 -2427 -976 -2915 -2199 -113 -283 -179 -542
-227 -880 -25 -181 -25 -690 0 -880 93 -699 352 -1294 792 -1820 569 -680
1353 -1117 2235 -1247 211 -31 711 -33 915 -5 832 118 1535 467 2090 1038 757
779 1109 1799 990 2869 -105 936 -568 1778 -1305 2370 -504 405 -1105 658
-1772 746 -174 23 -631 28 -803 8z m643 -774 c645 -70 1209 -338 1663 -790
419 -418 679 -932 770 -1522 30 -189 37 -545 15 -732 -59 -513 -235 -956 -541
-1364 -105 -141 -349 -390 -489 -498 -344 -269 -707 -439 -1126 -528 -217 -46
-280 -51 -590 -50 -274 0 -305 2 -440 27 -289 53 -500 122 -755 247 -310 152
-554 336 -807 608 -364 391 -599 880 -690 1433 -30 181 -33 639 -5 819 51 337
140 615 283 889 421 808 1212 1351 2122 1455 144 17 459 20 590 6z"/>
<path d="M4630 6295 l0 -665 -665 0 -665 0 0 -510 0 -510 665 0 665 0 0 -670
0 -670 495 0 495 0 0 670 0 670 665 0 665 0 0 510 0 510 -665 0 -665 0 0 665
0 665 -495 0 -495 0 0 -665z"/>
</g>
</svg>
